<?xml version="1.0"?>
<svg xmlns="http://www.w3.org/2000/svg" xmlns:xlink="http://www.w3.org/1999/xlink" viewBox="0 0 64 64" width="512" height="512"><defs><linearGradient id="linear-gradient" x1="-8.362" y1="44.362" x2="52.007" y2="-16.007" gradientUnits="userSpaceOnUse"><stop offset="0" stop-color="#003f8a"/><stop offset="0.518" stop-color="#00d7df"/><stop offset="1" stop-color="#006df0"/></linearGradient><linearGradient id="linear-gradient-2" x1="-1.362" y1="51.362" x2="59.007" y2="-9.007" xlink:href="#linear-gradient"/><linearGradient id="linear-gradient-3" x1="6.328" y1="59.052" x2="66.697" y2="-1.317" xlink:href="#linear-gradient"/><linearGradient id="linear-gradient-4" x1="0.388" y1="53.112" x2="60.757" y2="-7.257" xlink:href="#linear-gradient"/><linearGradient id="linear-gradient-5" x1="4.638" y1="57.362" x2="65.007" y2="-3.007" xlink:href="#linear-gradient"/><linearGradient id="linear-gradient-6" x1="12.141" y1="64.866" x2="72.511" y2="4.496" xlink:href="#linear-gradient"/><linearGradient id="linear-gradient-7" x1="-4.612" y1="48.112" x2="55.757" y2="-12.257" xlink:href="#linear-gradient"/><linearGradient id="linear-gradient-8" x1="-3.112" y1="49.612" x2="57.257" y2="-10.757" xlink:href="#linear-gradient"/><linearGradient id="linear-gradient-9" x1="-7.862" y1="44.862" x2="52.507" y2="-15.507" xlink:href="#linear-gradient"/><linearGradient id="linear-gradient-10" x1="9.638" y1="62.362" x2="70.007" y2="1.993" xlink:href="#linear-gradient"/><linearGradient id="linear-gradient-11" x1="-7.362" y1="45.362" x2="53.007" y2="-15.007" xlink:href="#linear-gradient"/><linearGradient id="linear-gradient-12" x1="5.47" y1="58.194" x2="65.84" y2="-2.175" xlink:href="#linear-gradient"/><linearGradient id="linear-gradient-13" x1="8.638" y1="61.362" x2="69.007" y2="0.993" xlink:href="#linear-gradient"/><linearGradient id="linear-gradient-14" x1="26.388" y1="79.112" x2="86.757" y2="18.743" xlink:href="#linear-gradient"/><linearGradient id="linear-gradient-15" x1="-1.862" y1="50.862" x2="58.507" y2="-9.507" xlink:href="#linear-gradient"/><linearGradient id="linear-gradient-16" x1="21.138" y1="73.862" x2="81.507" y2="13.493" xlink:href="#linear-gradient"/></defs><g id="Ai-7" data-name="Ai"><path d="M20,19a3,3,0,0,1-3-3,1,1,0,0,0-2,0,5.006,5.006,0,0,0,5,5,1,1,0,0,0,0-2Z" style="fill:url(#linear-gradient)"/><path d="M10,35a1,1,0,0,0,0,2,3,3,0,0,1,3,3,1,1,0,0,0,2,0A5.006,5.006,0,0,0,10,35Z" style="fill:url(#linear-gradient-2)"/><path d="M20,45a4,4,0,0,0-4,4,1,1,0,0,0,2,0,2,2,0,0,1,2-2,1,1,0,0,0,0-2Z" style="fill:url(#linear-gradient-3)"/><path d="M23,27a1,1,0,0,0,1,1c1.221,0,2,.592,2,1a1,1,0,0,0,2,0c0-1.683-1.757-3-4-3A1,1,0,0,0,23,27Z" style="fill:url(#linear-gradient-4)"/><path d="M27,37a2,2,0,0,1-2-2,1,1,0,0,0-2,0,4,4,0,0,0,4,4,1,1,0,0,0,0-2Z" style="fill:url(#linear-gradient-5)"/><path d="M26,50c-2.206,0-4,2.243-4,5a1,1,0,0,0,2,0c0-1.626.916-3,2-3a1,1,0,0,0,0-2Z" style="fill:url(#linear-gradient-6)"/><path d="M23,21h1a1,1,0,0,0,0-2H23a1,1,0,0,0,0,2Z" style="fill:url(#linear-gradient-7)"/><path d="M20,26H19a1,1,0,0,0,0,2h1a1,1,0,0,0,0-2Z" style="fill:url(#linear-gradient-8)"/><path d="M28,10a1,1,0,0,0,2,0V6a1,1,0,0,0-2,0Z" style="fill:url(#linear-gradient-9)"/><path d="M29,40a1,1,0,0,0-1,1v4a1,1,0,0,0,2,0V41A1,1,0,0,0,29,40Z" style="fill:url(#linear-gradient-10)"/><path d="M13,29a1,1,0,0,0,0-2,2,2,0,0,1-2-2,1,1,0,0,0-2,0A4,4,0,0,0,13,29Z" style="fill:url(#linear-gradient-11)"/><path d="M55,21a4,4,0,0,0-3.866,3.027A1.026,1.026,0,0,0,51,24H48a1,1,0,0,0-.6.2L41,29V21.414l2.908-2.908A3.977,3.977,0,1,0,43,16a3.9,3.9,0,0,0,.054.532l-3.761,3.761A1,1,0,0,0,39,21v7.586l-2,2V7a1,1,0,0,0-2,0V32.586L34.586,33H33V3.26a1,1,0,0,0-.422-.817A7.878,7.878,0,0,0,28,1a8,8,0,0,0-7.425,5.026C20.387,6.009,20.2,6,20,6a6.006,6.006,0,0,0-6,6,7.829,7.829,0,0,0-3.427.775A7.99,7.99,0,0,0,6.7,23.259,7.991,7.991,0,0,0,4.854,35.116a9.995,9.995,0,0,0,9.169,17.413A6.008,6.008,0,0,0,20,58c.2,0,.387-.009.575-.026A8,8,0,0,0,28,63a7.878,7.878,0,0,0,4.578-1.443A1,1,0,0,0,33,60.74V35h2V56a1,1,0,0,0,2,0V33.414l2-2V47a1,1,0,0,0,.293.707l3.761,3.761A3.9,3.9,0,0,0,43,52a4.05,4.05,0,1,0,.908-2.506L41,46.586V36.414l3.293,3.293A1,1,0,0,0,45,40h2a1.026,1.026,0,0,0,.134-.027,4,4,0,1,0,0-1.946A1.026,1.026,0,0,0,47,38H45.414L41,33.586V31.5L48.333,26H51a1.026,1.026,0,0,0,.134-.027A3.994,3.994,0,1,0,55,21Zm-8-7a2,2,0,1,1-2,2A2,2,0,0,1,47,14ZM31,60.2a5.9,5.9,0,0,1-3,.8,5.993,5.993,0,0,1-5.784-4.42,1,1,0,0,0-1.232-.7A3.723,3.723,0,0,1,20,56a4,4,0,0,1-4-4,3.609,3.609,0,0,1,.077-.777,1,1,0,0,0-1.433-1.1A8,8,0,0,1,6.91,36.13a1,1,0,0,0,.147-1.614,5.991,5.991,0,0,1,1.4-9.949,1,1,0,0,0,.428-1.435,5.984,5.984,0,0,1,2.546-8.552A5.847,5.847,0,0,1,14,14a4.888,4.888,0,0,1,.931.082,1,1,0,0,0,1.165-1.2A4.01,4.01,0,0,1,20,8a3.723,3.723,0,0,1,.984.124,1,1,0,0,0,1.232-.7A5.993,5.993,0,0,1,28,3a5.9,5.9,0,0,1,3,.8ZM47,50a2,2,0,1,1-2,2A2,2,0,0,1,47,50Zm4-13a2,2,0,1,1-2,2A2,2,0,0,1,51,37Zm4-10a2,2,0,1,1,2-2A2,2,0,0,1,55,27Z" style="fill:url(#linear-gradient-12)"/><path d="M53,17h2a1,1,0,0,0,0-2H53a1,1,0,0,0,0,2Z" style="fill:url(#linear-gradient-13)"/><path d="M54,51H53a1,1,0,0,0,0,2h1a1,1,0,0,0,0-2Z" style="fill:url(#linear-gradient-14)"/><path d="M40,13a1,1,0,0,0,1-1V6a1,1,0,0,0-2,0v6A1,1,0,0,0,40,13Z" style="fill:url(#linear-gradient-15)"/><path d="M40,52a1,1,0,0,0-1,1v4a1,1,0,0,0,2,0V53A1,1,0,0,0,40,52Z" style="fill:url(#linear-gradient-16)"/></g></svg>
